<svg id="visual" viewBox="0 0 900 600" width="900" height="600" xmlns="http://www.w3.org/2000/svg" xmlns:xlink="http://www.w3.org/1999/xlink" version="1.1"><rect x="0" y="0" width="900" height="600" fill="#121212"></rect><path d="M588 600L594.3 585.7C600.7 571.3 613.3 542.7 626.3 514.2C639.3 485.7 652.7 457.3 656 428.8C659.3 400.3 652.7 371.7 640.8 343C629 314.3 612 285.7 611 257C610 228.3 625 199.7 633 171.2C641 142.7 642 114.3 642.8 85.8C643.7 57.3 644.3 28.7 644.7 14.3L645 0L900 0L900 14.3C900 28.7 900 57.3 900 85.8C900 114.3 900 142.7 900 171.2C900 199.7 900 228.3 900 257C900 285.7 900 314.3 900 343C900 371.7 900 400.3 900 428.8C900 457.3 900 485.7 900 514.2C900 542.7 900 571.3 900 585.7L900 600Z" fill="#456572" stroke-linecap="round" stroke-linejoin="miter"></path></svg>
